<svg width="394" height="86" viewBox="0 0 394 86" fill="none" xmlns="http://www.w3.org/2000/svg">
<path d="M63.3549 63H96.5949V56.16H73.6149L96.2949 27.48V21.78H63.7749V28.62H86.0949L63.3549 57.3V63ZM103.374 63H110.814V21.78H103.374V63ZM135.418 63H142.918V49.14H153.358C162.178 49.14 168.778 43.5 168.778 35.46C168.778 27.42 162.178 21.78 153.358 21.78H135.418V63ZM142.918 42.24V28.68H152.518C157.618 28.68 161.158 31.26 161.158 35.46C161.158 39.66 157.618 42.24 152.518 42.24H142.918ZM202.256 21.78V38.58H181.676V21.78H174.176V63H181.676V45.42H202.256V63H209.756V21.78H202.256ZM249.177 63H257.457L240.237 21.78H231.897L214.677 63H223.017L226.137 55.56H246.057L249.177 63ZM228.837 49.08L236.097 31.74L243.357 49.08H228.837ZM296.134 63L285.814 48.36C291.754 46.5 295.774 41.7 295.774 35.46C295.774 27.42 289.174 21.78 280.354 21.78H262.414V63H269.914V49.14H277.894L287.614 63H296.134ZM269.914 28.68H279.514C284.614 28.68 288.154 31.26 288.154 35.46C288.154 39.66 284.614 42.24 279.514 42.24H269.914V28.68ZM302.591 63H310.091V35.46L323.651 60.6L337.271 35.46V63H344.711V21.78H337.271L323.651 46.92L310.091 21.78H302.591V63ZM384.728 63H393.008L375.788 21.78H367.448L350.228 63H358.568L361.688 55.56H381.608L384.728 63ZM364.388 49.08L371.648 31.74L378.908 49.08H364.388Z" fill="#FBFBFB"/>
<g clip-path="url(#clip0_873_4983)">
<path d="M56.2298 32.8354C56.2298 23.1276 49.4602 15.2578 41.1095 15.2578C32.7588 15.2578 25.9893 23.1276 25.9893 32.8354V53.3011C25.9893 63.009 32.7588 70.8788 41.1095 70.8788C49.4602 70.8788 56.2298 63.009 56.2298 53.3011V32.8354Z" fill="white"/>
<path d="M56.2298 43.3379H25.9893V48.738H56.2298V43.3379Z" fill="black"/>
<path d="M40.9884 15.0942C39.0427 15.0941 37.1161 15.5517 35.3185 16.4408C33.5209 17.3299 31.8876 18.6332 30.5118 20.2763C29.136 21.9193 28.0447 23.8699 27.3002 26.0166C26.5557 28.1634 26.1726 30.4643 26.1727 32.7879L26.1727 43.1393L55.8474 43.0876L55.8474 32.7361C55.8476 30.4125 55.4644 28.1116 54.7199 25.9649C53.9754 23.8181 52.8841 21.8675 51.5083 20.2245C50.1325 18.5815 48.4992 17.2782 46.7016 16.389C44.904 15.4999 42.9774 15.0423 41.0317 15.0425L40.9884 15.0942Z" fill="#B3BDC5"/>
<path d="M34.2521 28.0334C35.4933 29.5157 37.5057 29.5157 38.7469 28.0334C39.9882 26.5511 39.9882 24.1478 38.7469 22.6654C37.5057 21.1831 35.4933 21.1831 34.2521 22.6654C33.0109 24.1478 33.0109 26.5511 34.2521 28.0334Z" fill="white"/>
<path d="M30.9273 32.7434C31.3547 33.2539 32.0477 33.2539 32.4751 32.7434C32.9025 32.233 32.9025 31.4054 32.4751 30.8949C32.0477 30.3845 31.3547 30.3845 30.9273 30.8949C30.4998 31.4054 30.4998 32.233 30.9273 32.7434Z" fill="white"/>
</g>
<defs>
<clipPath id="clip0_873_4983">
<rect width="60.4287" height="60.4287" fill="white" transform="translate(42.7295) rotate(45)"/>
</clipPath>
</defs>
</svg>
