<svg width="86" height="86" viewBox="0 0 86 86" fill="none" xmlns="http://www.w3.org/2000/svg">

  <g clip-path="url(#clip0_873_4983)">
    <path
      d="M56.2298 32.8354C56.2298 23.1276 49.4602 15.2578 41.1095 15.2578C32.7588 15.2578 25.9893 23.1276 25.9893 32.8354V53.3011C25.9893 63.009 32.7588 70.8788 41.1095 70.8788C49.4602 70.8788 56.2298 63.009 56.2298 53.3011V32.8354Z"
      fill="white" />
    <path d="M56.2298 43.3379H25.9893V48.738H56.2298V43.3379Z" fill="black" />
    <path
      d="M40.9884 15.0942C39.0427 15.0941 37.1161 15.5517 35.3185 16.4408C33.5209 17.3299 31.8876 18.6332 30.5118 20.2763C29.136 21.9193 28.0447 23.8699 27.3002 26.0166C26.5557 28.1634 26.1726 30.4643 26.1727 32.7879L26.1727 43.1393L55.8474 43.0876L55.8474 32.7361C55.8476 30.4125 55.4644 28.1116 54.7199 25.9649C53.9754 23.8181 52.8841 21.8675 51.5083 20.2245C50.1325 18.5815 48.4992 17.2782 46.7016 16.389C44.904 15.4999 42.9774 15.0423 41.0317 15.0425L40.9884 15.0942Z"
      fill="#B3BDC5" />
    <path
      d="M34.2521 28.0334C35.4933 29.5157 37.5057 29.5157 38.7469 28.0334C39.9882 26.5511 39.9882 24.1478 38.7469 22.6654C37.5057 21.1831 35.4933 21.1831 34.2521 22.6654C33.0109 24.1478 33.0109 26.5511 34.2521 28.0334Z"
      fill="white" />
    <path
      d="M30.9273 32.7434C31.3547 33.2539 32.0477 33.2539 32.4751 32.7434C32.9025 32.233 32.9025 31.4054 32.4751 30.8949C32.0477 30.3845 31.3547 30.3845 30.9273 30.8949C30.4998 31.4054 30.4998 32.233 30.9273 32.7434Z"
      fill="white" />
  </g>
  <defs>
    <clipPath id="clip0_873_4983">
      <rect width="60.4287" height="60.4287" fill="white" transform="translate(42.7295) rotate(45)" />
    </clipPath>
  </defs>
</svg>