<svg width="150" height="31" viewBox="0 0 150 31" fill="none" xmlns="http://www.w3.org/2000/svg">
<g clip-path="url(#clip0_877_4831)">
<rect width="150" height="31" rx="15.5" fill="#F7F1E6"/>
<path fill-rule="evenodd" clip-rule="evenodd" d="M131.818 15H126.364V9C126.364 8.447 125.956 8 125.455 8C124.953 8 124.546 8.447 124.546 9V15H119.091C118.589 15 118.182 15.447 118.182 16C118.182 16.553 118.589 17 119.091 17H124.546V23C124.546 23.553 124.953 24 125.455 24C125.956 24 126.364 23.553 126.364 23V17H131.818C132.32 17 132.727 16.553 132.727 16C132.727 15.447 132.32 15 131.818 15" fill="#343C44"/>
<path d="M75.5441 23H77.4161V6.512H75.9041L71.8481 9.272L72.6641 10.664L75.5441 8.792V23Z" fill="#343C44"/>
<path fill-rule="evenodd" clip-rule="evenodd" d="M31.8182 17H19.091C18.5892 17 18.1819 16.553 18.1819 16C18.1819 15.447 18.5892 15 19.091 15H31.8182C32.321 15 32.7273 15.447 32.7273 16C32.7273 16.553 32.321 17 31.8182 17" fill="#343C44"/>
</g>
<defs>
<clipPath id="clip0_877_4831">
<rect width="150" height="31" rx="15.5" fill="white"/>
</clipPath>
</defs>
</svg>
