<svg width="52" height="56" viewBox="0 0 52 56" fill="none" xmlns="http://www.w3.org/2000/svg">
<rect width="52" height="56" rx="8" fill="#F9CF70"/>
<path fill-rule="evenodd" clip-rule="evenodd" d="M18.9999 27C18.9999 23.691 21.6909 21 24.9999 21C28.3089 21 30.9999 23.691 30.9999 27C30.9999 30.309 28.3089 33 24.9999 33C21.6909 33 18.9999 30.309 18.9999 27M34.7069 35.293L31.3119 31.897C32.3649 30.543 32.9999 28.846 32.9999 27C32.9999 22.589 29.4109 19 24.9999 19C20.5889 19 16.9999 22.589 16.9999 27C16.9999 31.411 20.5889 35 24.9999 35C26.8459 35 28.5429 34.365 29.8969 33.312L33.2929 36.707C33.4879 36.902 33.7439 37 33.9999 37C34.2559 37 34.5119 36.902 34.7069 36.707C35.0979 36.316 35.0979 35.684 34.7069 35.293" fill="#FBFBFB"/>
</svg>
